<svg xmlns="http://www.w3.org/2000/svg" viewBox="0 0 718 160" role="img" aria-label="Torterei Marienfeldt">
<title>Torterei Marienfeldt</title>
<g id="logo"><rect x="26" y="100.24" width="108" height="23.76" rx="1.62" fill="none" stroke="currentColor" stroke-width="2.7" stroke-linejoin="round"/><path d="M28.16 106.72 a4.32 4.32 0 0 0 8.64 0 a4.32 4.32 0 0 0 8.64 0 a4.32 4.32 0 0 0 8.64 0 a4.32 4.32 0 0 0 8.64 0 a4.32 4.32 0 0 0 8.64 0 a4.32 4.32 0 0 0 8.64 0 a4.32 4.32 0 0 0 8.64 0 a4.32 4.32 0 0 0 8.64 0 a4.32 4.32 0 0 0 8.64 0 a4.32 4.32 0 0 0 8.64 0 a4.32 4.32 0 0 0 8.64 0 a4.32 4.32 0 0 0 8.64 0" fill="none" stroke="currentColor" stroke-width="1.89" stroke-linecap="round"/><rect x="39.5" y="76.48" width="81" height="23.76" rx="1.62" fill="none" stroke="currentColor" stroke-width="2.7" stroke-linejoin="round"/><path d="M41.66 82.96 a4.26 4.26 0 0 0 8.52 0 a4.26 4.26 0 0 0 8.52 0 a4.26 4.26 0 0 0 8.52 0 a4.26 4.26 0 0 0 8.52 0 a4.26 4.26 0 0 0 8.52 0 a4.26 4.26 0 0 0 8.52 0 a4.26 4.26 0 0 0 8.52 0 a4.26 4.26 0 0 0 8.52 0 a4.26 4.26 0 0 0 8.52 0" fill="none" stroke="currentColor" stroke-width="1.89" stroke-linecap="round"/><rect x="53" y="52.72" width="54" height="23.76" rx="1.62" fill="none" stroke="currentColor" stroke-width="2.7" stroke-linejoin="round"/><path d="M55.16 59.2 a4.14 4.14 0 0 0 8.28 0 a4.14 4.14 0 0 0 8.28 0 a4.14 4.14 0 0 0 8.28 0 a4.14 4.14 0 0 0 8.28 0 a4.14 4.14 0 0 0 8.28 0 a4.14 4.14 0 0 0 8.28 0" fill="none" stroke="currentColor" stroke-width="1.89" stroke-linecap="round"/><path d="M15.2 125.08 H144.8" stroke="currentColor" stroke-width="2.7" stroke-linecap="round"/><path d="M80 125.08 v9.72 M60.56 135.88 H99.44" stroke="currentColor" stroke-width="2.7" stroke-linecap="round"/><path d="M80 38.68 C77.57 32.2 68.66 35.44 71.9 42.73 C73.52 46.78 77.57 50.02 80 53.26 C82.43 50.02 86.48 46.78 88.1 42.73 C91.34 35.44 82.43 32.2 80 38.68 Z" fill="#b0644e" /><path d="M199.02 44.552Q195.238 44.552 192.851 46.908Q190.464 49.264 189.1 53.852000000000004Q189.1 54.038 188.75900000000001 54.007Q188.418 53.976 188.418 53.852000000000004Q188.542 52.984 188.666 51.465Q188.79 49.946 188.945 48.147999999999996Q189.1 46.35 189.19299999999998 44.644999999999996Q189.286 42.94 189.286 41.886Q189.286 41.576 189.627 41.576Q189.968 41.576 189.968 41.886Q189.968 42.506 190.619 42.785Q191.27 43.064 192.07600000000002 43.157Q192.882 43.25 193.44 43.25Q198.772 43.436 205.902 43.436Q210.304 43.436 212.877 43.343Q215.45 43.25 217.868 43.25Q220.1 43.25 221.247 42.971000000000004Q222.394 42.692 222.704 41.7Q222.766 41.452 223.076 41.452Q223.386 41.452 223.386 41.7Q223.324 42.692 223.2 44.397Q223.076 46.102 223.014 47.992999999999995Q222.952 49.884 222.89 51.465Q222.828 53.046 222.828 53.852000000000004Q222.828 53.976 222.48700000000002 53.976Q222.14600000000002 53.976 222.084 53.852000000000004Q221.402 48.954 219.108 46.753Q216.814 44.552 212.97 44.552Q211.296 44.552 210.428 44.861999999999995Q209.56 45.172 209.25 46.009Q208.94 46.846000000000004 208.94 48.396V76.978Q208.94 78.776 209.34300000000002 79.70599999999999Q209.746 80.636 210.893 80.946Q212.04 81.256 214.39600000000002 81.256Q214.582 81.256 214.582 81.628Q214.582 82.0 214.39600000000002 82.0Q212.722 82.0 210.583 81.938Q208.444 81.876 205.902 81.876Q203.484 81.876 201.376 81.938Q199.268 82.0 197.47 82.0Q197.346 82.0 197.346 81.628Q197.346 81.256 197.47 81.256Q199.826 81.256 201.004 80.946Q202.182 80.636 202.58499999999998 79.70599999999999Q202.988 78.776 202.988 76.978V48.272Q202.988 46.722 202.709 45.947Q202.43 45.172 201.562 44.861999999999995Q200.694 44.552 199.02 44.552ZM240.25 82.806Q236.406 82.806 233.61599999999999 81.008Q230.826 79.21 229.276 76.203Q227.726 73.196 227.726 69.724Q227.726 66.5 228.966 64.144Q230.20600000000002 61.788 232.221 60.269Q234.23600000000002 58.75 236.62300000000002 58.006Q239.01000000000002 57.262 241.304 57.262Q245.21 57.262 248.0 59.122Q250.79000000000002 60.982 252.247 63.896Q253.704 66.81 253.704 70.096Q253.704 73.94 251.844 76.792Q249.984 79.644 246.94600000000003 81.225Q243.90800000000002 82.806 240.25 82.806ZM242.11 81.566Q244.83800000000002 81.566 246.32600000000002 79.179Q247.81400000000002 76.792 247.81400000000002 72.08Q247.81400000000002 67.80199999999999 246.60500000000002 64.764Q245.39600000000002 61.726 243.47400000000002 60.114Q241.55200000000002 58.501999999999995 239.258 58.501999999999995Q236.53 58.501999999999995 235.042 60.765Q233.554 63.028 233.554 67.554Q233.554 71.646 234.67000000000002 74.80799999999999Q235.786 77.97 237.739 79.768Q239.692 81.566 242.11 81.566ZM265.422 65.19800000000001 264.988 64.45400000000001Q267.344 61.664 268.98699999999997 60.145Q270.63 58.626000000000005 271.746 58.037000000000006Q272.862 57.448 273.85400000000004 57.448Q275.156 57.448 276.48900000000003 58.346999999999994Q277.822 59.245999999999995 277.822 60.61Q277.822 61.726 277.14 62.47Q276.458 63.214 275.218 63.214Q274.10200000000003 63.214 273.482 62.594Q272.862 61.974000000000004 272.30400000000003 61.416000000000004Q271.74600000000004 60.858000000000004 270.754 60.858000000000004Q270.25800000000004 60.858000000000004 269.70000000000005 61.137Q269.142 61.416 268.15 62.346Q267.158 63.275999999999996 265.422 65.19800000000001ZM258.354 82.0Q258.168 82.0 258.168 81.628Q258.168 81.256 258.354 81.256Q260.462 81.256 261.144 80.388Q261.826 79.52 261.826 76.978V65.136Q261.826 63.152 261.39200000000005 62.222Q260.958 61.292 259.842 61.292Q259.284 61.292 258.478 61.54Q257.672 61.788 256.742 62.222Q256.494 62.284 256.33900000000006 61.943Q256.184 61.602000000000004 256.37 61.54L264.492 57.572Q264.802 57.448 264.926 57.448Q265.546 57.448 266.197 58.873999999999995Q266.848 60.3 266.848 63.028V76.978Q266.848 78.652 267.34400000000005 79.613Q267.84000000000003 80.574 269.08000000000004 80.91499999999999Q270.32 81.256 272.552 81.256Q272.8 81.256 272.8 81.628Q272.8 82.0 272.552 82.0Q270.94 82.0 268.863 81.938Q266.786 81.876 264.368 81.876Q262.694 81.876 261.11300000000006 81.938Q259.53200000000004 82.0 258.354 82.0ZM290.47 82.744Q288.98199999999997 82.744 287.525 82.24799999999999Q286.068 81.752 285.10699999999997 80.574Q284.146 79.396 284.146 77.226V63.214Q284.146 61.85 283.867 61.106Q283.588 60.362 282.906 60.083Q282.224 59.804 280.984 59.804Q280.736 59.804 280.736 59.308Q280.736 58.812 280.984 58.812Q283.898 58.688 285.727 57.417Q287.556 56.146 288.3 53.79Q288.362 53.542 288.79600000000005 53.542Q289.23 53.542 289.23 53.79V75.18Q289.23 77.722 290.501 78.838Q291.772 79.954 293.818 79.954Q295.306 79.954 296.577 79.365Q297.848 78.776 298.716 78.094Q298.902 77.97 299.15 78.249Q299.398 78.528 299.15 78.714Q296.856 80.822 294.841 81.783Q292.826 82.744 290.47 82.744ZM297.228 61.168Q294.748 60.61 292.423 60.393Q290.098 60.176 287.432 60.176V58.688Q289.974 58.688 292.361 58.502Q294.748 58.316 297.476 58.068Q297.6 58.068 297.755 58.501999999999995Q297.91 58.936 297.91 59.556Q297.91 60.114000000000004 297.693 60.672000000000004Q297.476 61.230000000000004 297.228 61.168ZM314.092 82.744Q310.186 82.744 307.45799999999997 81.07Q304.73 79.396 303.33500000000004 76.637Q301.94 73.878 301.94 70.778Q301.94 67.05799999999999 303.738 64.082Q305.536 61.106 308.63599999999997 59.30800000000001Q311.736 57.510000000000005 315.642 57.510000000000005Q319.3 57.510000000000005 321.346 59.246Q323.392 60.982 323.392 64.64Q323.392 65.446 323.26800000000003 65.94200000000001Q323.144 66.438 322.71 66.438H317.626Q317.812 62.842 316.789 60.796Q315.766 58.75 313.41 58.75Q310.62 58.75 309.039 61.323Q307.458 63.896 307.458 68.174Q307.458 71.77 308.574 74.405Q309.69 77.04 311.86 78.528Q314.03000000000003 80.016 317.192 80.016Q319.11400000000003 80.016 320.41600000000005 79.489Q321.718 78.962 323.206 78.156Q323.33 78.032 323.547 78.28Q323.764 78.528 323.64 78.714Q321.408 80.884 319.08299999999997 81.814Q316.758 82.744 314.092 82.744ZM305.66 66.5 305.598 65.446 319.362 65.19800000000001V66.438ZM335.172 65.19800000000001 334.738 64.45400000000001Q337.094 61.664 338.73699999999997 60.145Q340.38 58.626000000000005 341.496 58.037000000000006Q342.612 57.448 343.60400000000004 57.448Q344.906 57.448 346.23900000000003 58.346999999999994Q347.572 59.245999999999995 347.572 60.61Q347.572 61.726 346.89 62.47Q346.208 63.214 344.968 63.214Q343.85200000000003 63.214 343.232 62.594Q342.612 61.974000000000004 342.05400000000003 61.416000000000004Q341.49600000000004 60.858000000000004 340.504 60.858000000000004Q340.00800000000004 60.858000000000004 339.45000000000005 61.137Q338.892 61.416 337.9 62.346Q336.908 63.275999999999996 335.172 65.19800000000001ZM328.104 82.0Q327.918 82.0 327.918 81.628Q327.918 81.256 328.104 81.256Q330.212 81.256 330.894 80.388Q331.576 79.52 331.576 76.978V65.136Q331.576 63.152 331.14200000000005 62.222Q330.708 61.292 329.592 61.292Q329.034 61.292 328.228 61.54Q327.422 61.788 326.492 62.222Q326.244 62.284 326.08900000000006 61.943Q325.934 61.602000000000004 326.12 61.54L334.242 57.572Q334.552 57.448 334.676 57.448Q335.296 57.448 335.947 58.873999999999995Q336.598 60.3 336.598 63.028V76.978Q336.598 78.652 337.09400000000005 79.613Q337.59000000000003 80.574 338.83000000000004 80.91499999999999Q340.07 81.256 342.302 81.256Q342.55 81.256 342.55 81.628Q342.55 82.0 342.302 82.0Q340.69 82.0 338.613 81.938Q336.536 81.876 334.118 81.876Q332.444 81.876 330.86300000000006 81.938Q329.28200000000004 82.0 328.104 82.0ZM362.948 82.744Q359.042 82.744 356.31399999999996 81.07Q353.586 79.396 352.19100000000003 76.637Q350.796 73.878 350.796 70.778Q350.796 67.05799999999999 352.594 64.082Q354.392 61.106 357.49199999999996 59.30800000000001Q360.592 57.510000000000005 364.498 57.510000000000005Q368.156 57.510000000000005 370.202 59.246Q372.248 60.982 372.248 64.64Q372.248 65.446 372.124 65.94200000000001Q372.0 66.438 371.566 66.438H366.48199999999997Q366.668 62.842 365.645 60.796Q364.622 58.75 362.266 58.75Q359.476 58.75 357.895 61.323Q356.314 63.896 356.314 68.174Q356.314 71.77 357.43 74.405Q358.546 77.04 360.716 78.528Q362.886 80.016 366.048 80.016Q367.97 80.016 369.27200000000005 79.489Q370.574 78.962 372.062 78.156Q372.186 78.032 372.403 78.28Q372.62 78.528 372.496 78.714Q370.264 80.884 367.93899999999996 81.814Q365.614 82.744 362.948 82.744ZM354.516 66.5 354.454 65.446 368.218 65.19800000000001V66.438ZM377.146 82.0Q376.96 82.0 376.96 81.628Q376.96 81.256 377.146 81.256Q379.254 81.256 379.967 80.388Q380.68 79.52 380.68 76.978V65.694Q380.68 63.586 380.246 62.625Q379.812 61.664 378.758 61.664Q378.262 61.664 377.642 61.85Q377.022 62.036 376.278 62.408Q376.03000000000003 62.47 375.875 62.098Q375.72 61.726 375.906 61.664L384.834 57.510000000000005Q384.958 57.448 385.02 57.448Q385.26800000000003 57.448 385.547 57.727000000000004Q385.826 58.006 385.826 58.192Q385.826 58.873999999999995 385.764 60.672Q385.702 62.47 385.702 65.632V76.978Q385.702 79.52 386.41499999999996 80.388Q387.128 81.256 389.236 81.256Q389.422 81.256 389.422 81.628Q389.422 82.0 389.236 82.0Q387.996 82.0 386.446 81.938Q384.896 81.876 383.16 81.876Q381.486 81.876 379.905 81.938Q378.324 82.0 377.146 82.0ZM382.85 50.938Q381.238 50.938 380.339 50.07Q379.44 49.202 379.44 47.59Q379.44 46.102 380.339 45.233999999999995Q381.238 44.366 382.85 44.366Q384.4 44.366 385.23699999999997 45.233999999999995Q386.074 46.102 386.074 47.59Q386.074 50.938 382.85 50.938ZM412.734 74.498 413.354 44.676 415.028 44.8 414.346 74.498Q414.284 77.784 415.61699999999996 79.52000000000001Q416.95 81.256 419.616 81.256Q419.802 81.256 419.802 81.628Q419.802 82.0 419.616 82.0Q418.252 82.0 416.826 81.938Q415.4 81.876 413.60200000000003 81.876Q411.742 81.876 410.223 81.938Q408.704 82.0 407.34000000000003 82.0Q407.154 82.0 407.154 81.628Q407.154 81.256 407.34000000000003 81.256Q409.882 81.256 411.27700000000004 79.52000000000001Q412.672 77.784 412.734 74.498ZM456.63 81.256Q456.754 81.256 456.754 81.628Q456.754 82.0 456.63 82.0Q455.01800000000003 82.0 453.034 81.938Q451.05 81.876 448.88 81.876Q446.71000000000004 81.876 444.819 81.938Q442.928 82.0 441.378 82.0Q441.254 82.0 441.254 81.628Q441.254 81.256 441.378 81.256Q444.354 81.256 445.222 80.45Q446.09000000000003 79.644 445.904 76.978L444.602 48.644L447.33 44.366L431.458 81.566Q431.396 81.814 430.962 81.814Q430.528 81.814 430.404 81.566L413.60200000000003 48.396Q411.37 43.994 407.774 43.994Q407.588 43.994 407.588 43.622Q407.588 43.25 407.774 43.25Q408.952 43.25 410.28499999999997 43.312Q411.618 43.374 412.548 43.374Q413.91200000000003 43.374 414.997 43.312Q416.082 43.25 416.702 43.25Q417.57 43.25 418.03499999999997 43.839Q418.5 44.428 419.55400000000003 46.474000000000004L433.504 73.816L430.838 78.528L445.532 44.8Q445.904 43.994 446.33799999999997 43.622Q446.772 43.25 447.392 43.25Q447.95 43.25 448.601 43.312Q449.252 43.374 450.182 43.374Q452.04200000000003 43.374 453.34400000000005 43.312Q454.646 43.25 455.886 43.25Q456.072 43.25 456.072 43.622Q456.072 43.994 455.886 43.994Q453.034 43.994 451.66999999999996 45.048Q450.306 46.102 450.43 48.644L451.794 76.978Q451.918 78.776 452.259 79.70599999999999Q452.6 80.636 453.62300000000005 80.946Q454.646 81.256 456.63 81.256ZM477.772 82.372Q477.524 82.496 477.214 82.496Q476.222 82.496 475.23 81.07Q474.238 79.644 474.238 76.916V66.004Q474.238 62.098 473.46299999999997 60.362Q472.688 58.626000000000005 471.014 58.626000000000005Q469.464 58.626000000000005 468.627 59.525000000000006Q467.79 60.424 467.418 61.571Q467.046 62.718 466.984 63.524Q466.798 65.074 466.023 65.88Q465.248 66.686 463.822 66.686Q462.396 66.686 461.776 66.035Q461.156 65.384 461.156 64.516Q461.156 63.152 462.427 61.881Q463.698 60.61 465.65099999999995 59.618Q467.604 58.626000000000005 469.712 58.037000000000006Q471.82 57.448 473.432 57.448Q475.974 57.448 477.61699999999996 59.06Q479.26 60.672 479.26 64.144V75.304Q479.26 77.226 479.88 78.21799999999999Q480.5 79.21 481.678 79.21Q482.67 79.21 483.90999999999997 78.652Q484.21999999999997 78.528 484.344 78.869Q484.468 79.21 484.158 79.334ZM466.116 82.434Q463.512 82.434 462.241 81.19399999999999Q460.96999999999997 79.954 460.96999999999997 78.032Q460.96999999999997 76.296 461.9 75.21100000000001Q462.83 74.126 464.504 73.41300000000001Q466.178 72.7 468.224 71.956L474.858 69.476L475.044 70.406L470.518 72.328Q469.774 72.576 468.906 73.041Q468.038 73.506 467.449 74.25Q466.86 74.994 466.86 76.234Q466.86 77.722 467.852 78.621Q468.844 79.52 470.084 79.52Q470.642 79.52 471.2 79.365Q471.758 79.21 472.502 78.714L475.85 76.482L475.912 77.412L471.51 80.512Q470.084 81.504 468.875 81.969Q467.666 82.434 466.116 82.434ZM493.76800000000003 65.19800000000001 493.334 64.45400000000001Q495.69 61.664 497.33299999999997 60.145Q498.976 58.626000000000005 500.092 58.037000000000006Q501.208 57.448 502.20000000000005 57.448Q503.502 57.448 504.83500000000004 58.346999999999994Q506.168 59.245999999999995 506.168 60.61Q506.168 61.726 505.486 62.47Q504.80400000000003 63.214 503.564 63.214Q502.44800000000004 63.214 501.82800000000003 62.594Q501.208 61.974000000000004 500.65000000000003 61.416000000000004Q500.09200000000004 60.858000000000004 499.1 60.858000000000004Q498.60400000000004 60.858000000000004 498.04600000000005 61.137Q497.488 61.416 496.496 62.346Q495.504 63.275999999999996 493.76800000000003 65.19800000000001ZM486.7 82.0Q486.514 82.0 486.514 81.628Q486.514 81.256 486.7 81.256Q488.808 81.256 489.49 80.388Q490.172 79.52 490.172 76.978V65.136Q490.172 63.152 489.73800000000006 62.222Q489.30400000000003 61.292 488.188 61.292Q487.63 61.292 486.824 61.54Q486.01800000000003 61.788 485.088 62.222Q484.84000000000003 62.284 484.68500000000006 61.943Q484.53000000000003 61.602000000000004 484.716 61.54L492.838 57.572Q493.148 57.448 493.272 57.448Q493.892 57.448 494.543 58.873999999999995Q495.194 60.3 495.194 63.028V76.978Q495.194 78.652 495.69000000000005 79.613Q496.18600000000004 80.574 497.42600000000004 80.91499999999999Q498.666 81.256 500.898 81.256Q501.146 81.256 501.146 81.628Q501.146 82.0 500.898 82.0Q499.286 82.0 497.209 81.938Q495.132 81.876 492.714 81.876Q491.04 81.876 489.45900000000006 81.938Q487.87800000000004 82.0 486.7 82.0ZM510.074 82.0Q509.888 82.0 509.888 81.628Q509.888 81.256 510.074 81.256Q512.182 81.256 512.895 80.388Q513.608 79.52 513.608 76.978V65.694Q513.608 63.586 513.174 62.625Q512.74 61.664 511.686 61.664Q511.19 61.664 510.57 61.85Q509.95 62.036 509.206 62.408Q508.958 62.47 508.803 62.098Q508.648 61.726 508.834 61.664L517.7620000000001 57.510000000000005Q517.886 57.448 517.948 57.448Q518.196 57.448 518.475 57.727000000000004Q518.754 58.006 518.754 58.192Q518.754 58.873999999999995 518.692 60.672Q518.63 62.47 518.63 65.632V76.978Q518.63 79.52 519.3430000000001 80.388Q520.056 81.256 522.164 81.256Q522.35 81.256 522.35 81.628Q522.35 82.0 522.164 82.0Q520.924 82.0 519.374 81.938Q517.824 81.876 516.088 81.876Q514.414 81.876 512.833 81.938Q511.252 82.0 510.074 82.0ZM515.778 50.938Q514.166 50.938 513.267 50.07Q512.368 49.202 512.368 47.59Q512.368 46.102 513.267 45.233999999999995Q514.166 44.366 515.778 44.366Q517.328 44.366 518.165 45.233999999999995Q519.002 46.102 519.002 47.59Q519.002 50.938 515.778 50.938ZM538.036 82.744Q534.13 82.744 531.402 81.07Q528.674 79.396 527.279 76.637Q525.884 73.878 525.884 70.778Q525.884 67.05799999999999 527.682 64.082Q529.48 61.106 532.5799999999999 59.30800000000001Q535.68 57.510000000000005 539.586 57.510000000000005Q543.2439999999999 57.510000000000005 545.29 59.246Q547.336 60.982 547.336 64.64Q547.336 65.446 547.212 65.94200000000001Q547.088 66.438 546.654 66.438H541.5699999999999Q541.756 62.842 540.733 60.796Q539.7099999999999 58.75 537.3539999999999 58.75Q534.564 58.75 532.983 61.323Q531.4019999999999 63.896 531.4019999999999 68.174Q531.4019999999999 71.77 532.518 74.405Q533.634 77.04 535.804 78.528Q537.9739999999999 80.016 541.136 80.016Q543.058 80.016 544.3599999999999 79.489Q545.6619999999999 78.962 547.15 78.156Q547.274 78.032 547.491 78.28Q547.708 78.528 547.584 78.714Q545.352 80.884 543.027 81.814Q540.702 82.744 538.036 82.744ZM529.6039999999999 66.5 529.5419999999999 65.446 543.3059999999999 65.19800000000001V66.438ZM568.726 82.0Q568.54 82.0 568.54 81.628Q568.54 81.256 568.726 81.256Q570.834 81.256 571.516 80.388Q572.198 79.52 572.198 76.978V67.678Q572.198 64.206 570.9269999999999 62.563Q569.656 60.92 566.928 60.92Q564.944 60.92 562.867 62.005Q560.79 63.09 559.4259999999999 65.012L559.116 64.268Q561.534 60.982 564.231 59.153Q566.928 57.324 570.028 57.324Q573.5 57.324 575.36 59.400999999999996Q577.22 61.478 577.22 65.012V76.978Q577.22 79.52 577.933 80.388Q578.646 81.256 580.754 81.256Q580.9399999999999 81.256 580.9399999999999 81.628Q580.9399999999999 82.0 580.754 82.0Q579.576 82.0 578.0260000000001 81.938Q576.476 81.876 574.74 81.876Q573.0659999999999 81.876 571.4849999999999 81.938Q569.904 82.0 568.726 82.0ZM552.048 82.0Q551.862 82.0 551.862 81.628Q551.862 81.256 552.048 81.256Q554.156 81.256 554.838 80.388Q555.52 79.52 555.52 76.978V65.136Q555.52 63.152 555.086 62.222Q554.6519999999999 61.292 553.536 61.292Q552.978 61.292 552.172 61.54Q551.366 61.788 550.4359999999999 62.222Q550.188 62.284 550.0329999999999 61.943Q549.8779999999999 61.602000000000004 550.064 61.54L558.1859999999999 57.572Q558.496 57.448 558.62 57.448Q559.24 57.448 559.891 58.873999999999995Q560.5419999999999 60.3 560.5419999999999 63.028V76.978Q560.5419999999999 79.52 561.2549999999999 80.388Q561.968 81.256 564.076 81.256Q564.262 81.256 564.262 81.628Q564.262 82.0 564.076 82.0Q562.898 82.0 561.348 81.938Q559.798 81.876 558.062 81.876Q556.3879999999999 81.876 554.807 81.938Q553.226 82.0 552.048 82.0ZM583.73 82.0Q583.482 82.0 583.482 81.628Q583.482 81.256 583.73 81.256Q586.148 81.256 586.892 80.45Q587.636 79.644 587.636 76.978V63.028Q587.636 61.602000000000004 587.2950000000001 60.951Q586.9540000000001 60.3 586.0550000000001 60.083Q585.1560000000001 59.866 583.482 59.866Q583.296 59.866 583.296 59.339Q583.296 58.812 583.482 58.812Q585.7760000000001 58.812 586.613 58.223Q587.45 57.634 587.5120000000001 56.084Q587.822 45.792 591.356 41.39Q594.89 36.988 601.71 36.988Q605.12 36.988 607.042 37.918Q608.964 38.848 608.964 40.522Q608.964 41.824 608.096 42.506Q607.2280000000001 43.188 606.174 43.188Q604.8100000000001 43.188 604.19 42.506Q603.57 41.824 603.0740000000001 40.894Q602.516 39.778 601.741 39.034Q600.966 38.29 599.354 38.29Q596.44 38.29 594.549 42.134Q592.658 45.978 592.658 54.782V76.978Q592.658 78.776 593.03 79.70599999999999Q593.402 80.636 594.642 80.946Q595.8820000000001 81.256 598.362 81.256Q598.61 81.256 598.61 81.628Q598.61 82.0 598.362 82.0Q596.254 82.0 594.239 81.938Q592.224 81.876 590.054 81.876Q588.318 81.876 586.675 81.938Q585.032 82.0 583.73 82.0ZM599.664 61.168Q597.246 60.61 595.0450000000001 60.393Q592.844 60.176 590.364 60.176V58.688Q592.782 58.688 595.0450000000001 58.502Q597.308 58.316 599.85 58.068Q600.0360000000001 58.068 600.1600000000001 58.501999999999995Q600.284 58.936 600.284 59.556Q600.284 60.114000000000004 600.098 60.672000000000004Q599.912 61.230000000000004 599.664 61.168ZM615.04 82.744Q611.134 82.744 608.406 81.07Q605.678 79.396 604.283 76.637Q602.888 73.878 602.888 70.778Q602.888 67.05799999999999 604.686 64.082Q606.484 61.106 609.5840000000001 59.30800000000001Q612.684 57.510000000000005 616.59 57.510000000000005Q620.2479999999999 57.510000000000005 622.294 59.246Q624.34 60.982 624.34 64.64Q624.34 65.446 624.216 65.94200000000001Q624.092 66.438 623.658 66.438H618.574Q618.76 62.842 617.737 60.796Q616.7139999999999 58.75 614.358 58.75Q611.568 58.75 609.987 61.323Q608.406 63.896 608.406 68.174Q608.406 71.77 609.5219999999999 74.405Q610.638 77.04 612.808 78.528Q614.978 80.016 618.14 80.016Q620.062 80.016 621.364 79.489Q622.6659999999999 78.962 624.154 78.156Q624.278 78.032 624.495 78.28Q624.712 78.528 624.588 78.714Q622.356 80.884 620.031 81.814Q617.706 82.744 615.04 82.744ZM606.608 66.5 606.5459999999999 65.446 620.31 65.19800000000001V66.438ZM628.804 82.0Q628.6179999999999 82.0 628.6179999999999 81.628Q628.6179999999999 81.256 628.804 81.256Q630.85 81.256 631.594 80.388Q632.338 79.52 632.338 76.978V45.296Q632.338 43.126 631.9659999999999 42.165Q631.5939999999999 41.204 630.54 41.204Q629.672 41.204 627.998 41.948Q627.812 42.01 627.626 41.638Q627.4399999999999 41.266 627.564 41.204L636.306 37.112Q636.43 37.05 636.554 37.05Q636.802 37.05 637.1120000000001 37.298Q637.422 37.546 637.422 37.732V76.978Q637.422 79.52 638.135 80.388Q638.848 81.256 640.956 81.256Q641.1419999999999 81.256 641.1419999999999 81.628Q641.1419999999999 82.0 640.956 82.0Q639.778 82.0 638.197 81.938Q636.616 81.876 634.88 81.876Q633.144 81.876 631.563 81.938Q629.982 82.0 628.804 82.0ZM654.7199999999999 82.806Q652.116 82.806 649.884 81.34899999999999Q647.6519999999999 79.892 646.319 77.226Q644.986 74.56 644.986 70.778Q644.986 67.12 646.3499999999999 64.547Q647.7139999999999 61.974000000000004 649.853 60.362Q651.992 58.75 654.472 58.006Q656.952 57.262 659.184 57.262Q661.4159999999999 57.262 663.338 57.882Q665.26 58.501999999999995 666.81 59.494L665.632 64.206Q664.2679999999999 61.54 662.501 60.144999999999996Q660.7339999999999 58.75 658.006 58.75Q654.5959999999999 58.75 652.5809999999999 61.137Q650.5659999999999 63.524 650.5659999999999 68.856Q650.5659999999999 72.39 651.4959999999999 74.90100000000001Q652.4259999999999 77.412 654.0999999999999 78.745Q655.7739999999999 80.078 657.8199999999999 80.078Q660.362 80.078 662.346 78.652Q664.3299999999999 77.226 666.1279999999999 75.242L666.6859999999999 75.738Q665.3839999999999 77.226 663.617 78.869Q661.8499999999999 80.512 659.6489999999999 81.65899999999999Q657.448 82.806 654.7199999999999 82.806ZM669.414 37.732V74.932Q669.414 77.102 669.848 78.001Q670.2819999999999 78.9 671.3359999999999 78.9Q671.832 78.9 672.545 78.714Q673.2579999999999 78.528 674.126 78.156Q674.3119999999999 78.032 674.4979999999999 78.37299999999999Q674.684 78.714 674.4979999999999 78.838L666.5619999999999 82.682Q666.376 82.744 666.1899999999999 82.744Q665.5079999999999 82.744 664.9499999999999 81.256Q664.3919999999999 79.768 664.3919999999999 76.916V45.296Q664.3919999999999 43.188 664.02 42.196Q663.6479999999999 41.204 662.5319999999999 41.204Q662.036 41.204 661.4159999999999 41.421Q660.7959999999999 41.638 660.0519999999999 41.948Q659.804 42.072 659.6179999999999 41.7Q659.4319999999999 41.328 659.6179999999999 41.266L668.2979999999999 37.112Q668.4219999999999 37.05 668.5459999999999 37.05Q668.794 37.05 669.104 37.298Q669.414 37.546 669.414 37.732ZM686.092 82.744Q684.6039999999999 82.744 683.1469999999999 82.24799999999999Q681.6899999999999 81.752 680.7289999999999 80.574Q679.7679999999999 79.396 679.7679999999999 77.226V63.214Q679.7679999999999 61.85 679.4889999999999 61.106Q679.2099999999999 60.362 678.528 60.083Q677.846 59.804 676.606 59.804Q676.358 59.804 676.358 59.308Q676.358 58.812 676.606 58.812Q679.52 58.688 681.3489999999999 57.417Q683.178 56.146 683.9219999999999 53.79Q683.9839999999999 53.542 684.4179999999999 53.542Q684.852 53.542 684.852 53.79V75.18Q684.852 77.722 686.123 78.838Q687.394 79.954 689.4399999999999 79.954Q690.928 79.954 692.199 79.365Q693.4699999999999 78.776 694.338 78.094Q694.524 77.97 694.7719999999999 78.249Q695.02 78.528 694.7719999999999 78.714Q692.478 80.822 690.463 81.783Q688.448 82.744 686.092 82.744ZM692.8499999999999 61.168Q690.37 60.61 688.045 60.393Q685.7199999999999 60.176 683.054 60.176V58.688Q685.596 58.688 687.983 58.502Q690.37 58.316 693.098 58.068Q693.222 58.068 693.377 58.501999999999995Q693.5319999999999 58.936 693.5319999999999 59.556Q693.5319999999999 60.114000000000004 693.3149999999999 60.672000000000004Q693.098 61.230000000000004 692.8499999999999 61.168Z" fill="currentColor" /><path d="M195.58 124.36Q194.56 124.36 193.555 124.13499999999999Q192.55 123.91 191.44 123.34Q191.32 123.25 191.27499999999998 123.11500000000001Q191.23 122.98 191.26 122.77L191.86 118.72Q191.86 118.57 192.025 118.57Q192.19 118.57 192.22 118.72Q192.34 120.16 192.82 121.315Q193.3 122.47 194.17000000000002 123.13Q195.04 123.79 196.33 123.79Q197.23 123.79 198.01 123.445Q198.79 123.1 199.36 122.35Q199.93 121.6 200.11 120.43Q200.38 119.08 199.945 118.10499999999999Q199.51 117.13 198.67000000000002 116.395Q197.83 115.66 196.9 115.0Q195.97 114.31 195.14499999999998 113.59Q194.32 112.87 193.885 111.91Q193.45 110.95 193.69 109.57Q193.99 108.01 194.95 106.975Q195.91 105.94 197.245 105.43Q198.58 104.92 199.96 104.92Q200.74 104.92 201.57999999999998 105.08500000000001Q202.42 105.25 203.29 105.64Q203.68 105.85 203.65 106.15L203.23 109.66Q203.23 109.75 203.065 109.75Q202.9 109.75 202.9 109.66Q202.75 108.55 202.36 107.57499999999999Q201.97 106.6 201.25 106.015Q200.53 105.43 199.36 105.43Q198.28 105.43 197.575 105.91Q196.87 106.39 196.465 107.11Q196.06 107.83 195.91 108.58Q195.7 109.81 196.12 110.68Q196.54 111.55 197.35 112.225Q198.16 112.9 199.06 113.56Q200.05 114.25 200.935 115.015Q201.82 115.78 202.3 116.8Q202.78 117.82 202.54 119.26Q202.3 120.67 201.41500000000002 121.825Q200.53 122.98 199.075 123.67Q197.62 124.36 195.58 124.36ZM208.66 124.36Q207.01 124.36 206.07999999999998 123.52000000000001Q205.14999999999998 122.68 204.86499999999998 121.33000000000001Q204.57999999999998 119.98 204.85 118.45Q205.06 117.31 205.69 116.17Q206.32 115.03 207.25 114.1Q208.17999999999998 113.17 209.34999999999997 112.6Q210.51999999999998 112.03 211.83999999999997 112.03Q212.98 112.03 213.53499999999997 112.465Q214.08999999999997 112.9 214.0 113.65Q213.88 114.37 213.175 115.06Q212.47 115.75 211.36 116.28999999999999Q210.25 116.83 208.87 117.22Q207.48999999999998 117.61 206.04999999999998 117.76L206.10999999999999 117.37Q208.35999999999999 117.04 209.89 116.305Q211.42 115.57 211.66 114.28Q211.83999999999997 113.53 211.435 113.185Q211.03 112.84 210.42999999999998 112.84Q209.53 112.84 208.83999999999997 113.47Q208.14999999999998 114.1 207.7 115.15Q207.25 116.2 207.04 117.46Q206.73999999999998 119.08 206.98 120.38499999999999Q207.22 121.69 207.97 122.47Q208.72 123.25 209.98 123.25Q210.67 123.25 211.435 123.03999999999999Q212.2 122.83 212.92 122.26Q212.98 122.2 213.08499999999998 122.32Q213.19 122.44 213.13 122.53Q211.98999999999998 123.52 210.86499999999998 123.94Q209.73999999999998 124.36 208.66 124.36ZM217.11999999999998 124.27Q216.24999999999997 124.27 216.03999999999996 123.58Q215.82999999999998 122.89 216.1 121.33L219.01 105.7Q219.21999999999997 104.53 218.815 104.245Q218.41 103.96000000000001 217.08999999999997 104.62Q216.97 104.65 216.89499999999998 104.47Q216.82 104.28999999999999 216.94 104.26L221.04999999999998 102.25Q221.2 102.19 221.32 102.31Q221.44 102.43 221.41 102.49000000000001L217.95999999999998 121.33Q217.77999999999997 122.23 217.92999999999998 122.605Q218.07999999999998 122.98 218.41 122.98Q218.73999999999998 122.98 219.20499999999998 122.62Q219.67 122.26 220.26999999999998 121.69Q220.39 121.57 220.51 121.69Q220.63 121.81 220.51 121.93Q219.54999999999998 123.04 218.73999999999998 123.655Q217.92999999999998 124.27 217.11999999999998 124.27ZM226.02999999999997 124.39Q224.43999999999997 124.39 223.59999999999997 123.64Q222.75999999999996 122.89 222.99999999999997 121.6L225.96999999999997 105.7Q226.17999999999998 104.53 225.76 104.245Q225.33999999999997 103.96000000000001 223.98999999999998 104.62Q223.86999999999998 104.65 223.80999999999997 104.47Q223.74999999999997 104.28999999999999 223.86999999999998 104.26L227.97999999999996 102.25Q228.12999999999997 102.19 228.24999999999997 102.31Q228.36999999999998 102.43 228.33999999999997 102.49000000000001L224.94999999999996 121.12Q224.76999999999998 122.2 225.42999999999998 122.905Q226.08999999999997 123.61 227.22999999999996 123.61Q228.15999999999997 123.61 229.10499999999996 122.875Q230.04999999999998 122.14 230.78499999999997 120.75999999999999Q231.51999999999998 119.38 231.84999999999997 117.4Q232.08999999999997 116.35 232.015 115.495Q231.93999999999997 114.64 231.56499999999997 114.11500000000001Q231.18999999999997 113.59 230.37999999999997 113.59Q229.20999999999998 113.59 228.11499999999998 114.535Q227.01999999999998 115.48 226.20999999999998 117.17500000000001Q225.39999999999998 118.87 224.94999999999996 121.12L224.73999999999998 120.52Q225.00999999999996 118.81 225.68499999999997 117.265Q226.35999999999999 115.72 227.33499999999998 114.55Q228.30999999999997 113.38 229.45 112.705Q230.58999999999997 112.03 231.75999999999996 112.03Q233.16999999999996 112.03 233.82999999999998 113.275Q234.48999999999998 114.52 234.12999999999997 116.47Q233.73999999999998 118.42 232.83999999999997 119.905Q231.93999999999997 121.39 230.75499999999997 122.38Q229.56999999999996 123.37 228.325 123.88Q227.07999999999998 124.39 226.02999999999997 124.39ZM237.81999999999996 124.33Q236.61999999999995 124.33 235.74999999999994 123.75999999999999Q234.87999999999997 123.19 234.99999999999997 122.38Q235.05999999999997 121.9 235.37499999999997 121.66Q235.68999999999997 121.42 236.04999999999995 121.42Q236.49999999999997 121.42 236.73999999999995 121.75Q236.97999999999996 122.08 237.20499999999996 122.485Q237.42999999999995 122.89 237.80499999999995 123.22Q238.17999999999995 123.55 238.89999999999995 123.55Q239.61999999999995 123.55 240.03999999999996 123.145Q240.45999999999995 122.74 240.54999999999995 121.93Q240.69999999999996 121.0 240.27999999999997 120.325Q239.85999999999996 119.65 239.18499999999995 119.095Q238.50999999999996 118.54 237.84999999999997 117.98500000000001Q237.18999999999997 117.43 236.81499999999997 116.74000000000001Q236.43999999999997 116.05 236.61999999999995 115.09Q236.76999999999995 114.22 237.38499999999996 113.545Q237.99999999999997 112.87 238.88499999999996 112.495Q239.76999999999995 112.12 240.75999999999996 112.12Q241.92999999999995 112.12 242.67999999999995 112.57Q243.42999999999995 113.02 243.33999999999997 113.71000000000001Q243.24999999999997 114.19 242.91999999999996 114.43Q242.58999999999997 114.67 242.28999999999996 114.67Q241.74999999999997 114.67 241.49499999999995 114.38499999999999Q241.23999999999995 114.1 241.04499999999996 113.74Q240.84999999999997 113.38 240.53499999999997 113.11Q240.21999999999997 112.84 239.58999999999997 112.84Q239.04999999999995 112.84 238.65999999999997 113.14Q238.26999999999995 113.44 238.20999999999995 113.95Q238.05999999999997 114.82 238.46499999999997 115.47999999999999Q238.86999999999995 116.14 239.54499999999996 116.71000000000001Q240.21999999999997 117.28 240.89499999999998 117.86500000000001Q241.56999999999996 118.45 241.95999999999998 119.17Q242.34999999999997 119.89 242.19999999999996 120.85Q242.04999999999995 121.69 241.44999999999996 122.5Q240.84999999999997 123.31 239.91999999999996 123.82Q238.98999999999995 124.33 237.81999999999996 124.33ZM247.59999999999997 124.36Q246.96999999999997 124.36 246.41499999999996 124.13499999999999Q245.85999999999996 123.91 245.58999999999997 123.31Q245.31999999999996 122.71 245.49999999999997 121.6L246.75999999999996 114.82Q246.96999999999997 113.74 246.78999999999996 113.47Q246.60999999999996 113.2 245.73999999999998 113.2Q245.61999999999998 113.2 245.64999999999998 112.99000000000001Q245.67999999999998 112.78 245.76999999999998 112.78Q246.93999999999997 112.78 247.73499999999996 112.075Q248.52999999999997 111.37 248.88999999999996 110.38Q248.91999999999996 110.26 249.17499999999995 110.28999999999999Q249.42999999999998 110.32 249.39999999999998 110.41L247.53999999999996 120.82Q247.32999999999996 121.99 247.67499999999995 122.53Q248.01999999999998 123.07 248.94999999999996 123.07Q249.72999999999996 123.07 250.40499999999997 122.71Q251.07999999999996 122.35 251.73999999999998 121.81Q251.79999999999995 121.75 251.91999999999996 121.87Q252.03999999999996 121.99 251.97999999999996 122.05Q250.59999999999997 123.28 249.56499999999997 123.82Q248.52999999999997 124.36 247.59999999999997 124.36ZM251.97999999999996 113.8Q251.91999999999996 113.8 251.33499999999998 113.71000000000001Q250.74999999999997 113.62 249.95499999999998 113.545Q249.15999999999997 113.47 248.40999999999997 113.47L248.46999999999997 112.72Q249.30999999999997 112.72 250.19499999999996 112.66Q251.07999999999996 112.6 251.78499999999997 112.53999999999999Q252.48999999999998 112.48 252.75999999999996 112.48Q252.87999999999997 112.48 252.93999999999997 112.57Q252.99999999999997 112.66 252.96999999999997 112.78Q252.90999999999997 113.02 252.60999999999996 113.41Q252.30999999999997 113.8 251.97999999999996 113.8ZM256.05999999999995 132.43Q254.43999999999997 132.43 253.35999999999996 131.935Q252.27999999999997 131.44 251.81499999999997 130.63Q251.34999999999997 129.82 251.52999999999997 128.89Q251.79999999999995 127.57 253.19499999999996 126.55Q254.58999999999997 125.53 256.41999999999996 124.54L256.62999999999994 124.78Q255.96999999999997 125.17 255.29499999999996 125.65Q254.61999999999998 126.13 254.14 126.715Q253.65999999999997 127.3 253.50999999999996 128.14Q253.38999999999996 129.1 253.85499999999996 129.88Q254.31999999999996 130.66 255.27999999999997 131.11Q256.23999999999995 131.56 257.53 131.56Q259.11999999999995 131.56 259.9 130.87Q260.67999999999995 130.18 260.71 129.25Q260.73999999999995 128.44 260.275 127.84Q259.80999999999995 127.24 259.07499999999993 126.78999999999999Q258.34 126.34 257.515 125.95Q256.68999999999994 125.56 255.98499999999996 125.14Q255.27999999999997 124.72 254.90499999999997 124.195Q254.52999999999997 123.67 254.64999999999998 122.98Q254.79999999999995 122.29 255.41499999999996 121.66Q256.03 121.03 256.92999999999995 120.31L257.22999999999996 120.55Q256.9 120.7 256.645 121.075Q256.39 121.45 256.33 121.84Q256.23999999999995 122.5 256.68999999999994 122.965Q257.14 123.43 257.875 123.82Q258.60999999999996 124.21 259.44999999999993 124.63Q260.28999999999996 125.05 261.025 125.545Q261.76 126.04 262.16499999999996 126.73Q262.56999999999994 127.42 262.45 128.38Q262.33 129.52 261.41499999999996 130.435Q260.49999999999994 131.35 259.10499999999996 131.89Q257.71 132.43 256.05999999999995 132.43ZM257.37999999999994 121.06Q256.17999999999995 121.06 255.42999999999995 120.445Q254.67999999999998 119.83 254.40999999999997 118.82499999999999Q254.13999999999996 117.82 254.37999999999997 116.62Q254.61999999999998 115.36 255.36999999999995 114.37Q256.11999999999995 113.38 257.19999999999993 112.81Q258.28 112.24 259.47999999999996 112.24Q260.73999999999995 112.24 261.47499999999997 112.84Q262.21 113.44 262.465 114.43Q262.71999999999997 115.42 262.45 116.62Q262.17999999999995 117.97 261.385 118.96000000000001Q260.59 119.95 259.53999999999996 120.505Q258.48999999999995 121.06 257.37999999999994 121.06ZM258.12999999999994 120.46Q258.93999999999994 120.46 259.62999999999994 119.60499999999999Q260.31999999999994 118.75 260.53 117.28Q260.67999999999995 116.32 260.55999999999995 115.3Q260.43999999999994 114.28 260.00499999999994 113.545Q259.56999999999994 112.81 258.76 112.81Q257.91999999999996 112.81 257.215 113.725Q256.51 114.64 256.33 116.02Q256.15 117.13 256.31499999999994 118.15Q256.47999999999996 119.17 256.94499999999994 119.815Q257.40999999999997 120.46 258.12999999999994 120.46ZM260.61999999999995 113.62 260.59 113.41Q261.48999999999995 112.84 262.53999999999996 112.51Q263.59 112.18 264.42999999999995 112.18Q264.58 112.18 264.59499999999997 112.45Q264.60999999999996 112.72 264.53499999999997 113.05Q264.46 113.38 264.37 113.62Q264.28 113.86 264.18999999999994 113.8Q263.49999999999994 113.38 262.49499999999995 113.33500000000001Q261.48999999999995 113.29 260.61999999999995 113.62ZM268.98999999999995 124.36Q267.34 124.36 266.40999999999997 123.52000000000001Q265.47999999999996 122.68 265.19499999999994 121.33000000000001Q264.90999999999997 119.98 265.17999999999995 118.45Q265.39 117.31 266.02 116.17Q266.65 115.03 267.58 114.1Q268.51 113.17 269.67999999999995 112.6Q270.84999999999997 112.03 272.16999999999996 112.03Q273.30999999999995 112.03 273.86499999999995 112.465Q274.41999999999996 112.9 274.33 113.65Q274.21 114.37 273.505 115.06Q272.79999999999995 115.75 271.68999999999994 116.28999999999999Q270.58 116.83 269.2 117.22Q267.82 117.61 266.38 117.76L266.44 117.37Q268.69 117.04 270.22 116.305Q271.75 115.57 271.98999999999995 114.28Q272.16999999999996 113.53 271.765 113.185Q271.35999999999996 112.84 270.76 112.84Q269.85999999999996 112.84 269.16999999999996 113.47Q268.47999999999996 114.1 268.03 115.15Q267.58 116.2 267.36999999999995 117.46Q267.07 119.08 267.30999999999995 120.38499999999999Q267.54999999999995 121.69 268.29999999999995 122.47Q269.04999999999995 123.25 270.30999999999995 123.25Q271.0 123.25 271.765 123.03999999999999Q272.53 122.83 273.25 122.26Q273.30999999999995 122.2 273.41499999999996 122.32Q273.52 122.44 273.46 122.53Q272.32 123.52 271.195 123.94Q270.07 124.36 268.98999999999995 124.36ZM279.16 124.39Q277.57 124.39 276.73 123.64Q275.89 122.89 276.13 121.6L279.1 105.7Q279.31 104.53 278.89 104.245Q278.46999999999997 103.96000000000001 277.12 104.62Q277.0 104.65 276.94 104.47Q276.88 104.28999999999999 277.0 104.26L281.11 102.25Q281.26 102.19 281.38 102.31Q281.5 102.43 281.46999999999997 102.49000000000001L278.08 121.12Q277.9 122.2 278.55999999999995 122.905Q279.21999999999997 123.61 280.36 123.61Q281.29 123.61 282.235 122.875Q283.18 122.14 283.91499999999996 120.75999999999999Q284.65 119.38 284.98 117.4Q285.21999999999997 116.35 285.145 115.495Q285.07 114.64 284.695 114.11500000000001Q284.32 113.59 283.51 113.59Q282.34 113.59 281.245 114.535Q280.15 115.48 279.34 117.17500000000001Q278.53 118.87 278.08 121.12L277.87 120.52Q278.14 118.81 278.815 117.265Q279.49 115.72 280.46500000000003 114.55Q281.44 113.38 282.58 112.705Q283.71999999999997 112.03 284.89 112.03Q286.3 112.03 286.96000000000004 113.275Q287.62 114.52 287.26 116.47Q286.87 118.42 285.97 119.905Q285.07 121.39 283.885 122.38Q282.7 123.37 281.455 123.88Q280.21 124.39 279.16 124.39ZM290.29 124.39Q289.3 124.39 288.775 123.67Q288.25 122.95 288.46000000000004 121.27Q288.7 119.68 289.51 118.06Q290.32 116.44 291.475 115.06Q292.63 113.68 293.95000000000005 112.855Q295.27000000000004 112.03 296.47 112.03Q297.04 112.03 297.61 112.24000000000001Q298.18 112.45 298.58500000000004 112.91499999999999Q298.99 113.38 299.05 114.16L297.61 113.29Q298.03000000000003 113.23 298.54 112.795Q299.05 112.36 299.29 111.79Q299.35 111.7 299.515 111.745Q299.68 111.79 299.65000000000003 111.85L297.91 121.33Q297.61 122.98 298.3 122.98Q298.63 122.98 299.125 122.62Q299.62 122.26 300.19 121.69Q300.28000000000003 121.6 300.40000000000003 121.72Q300.52000000000004 121.84 300.43 121.93Q299.47 123.04 298.66 123.655Q297.85 124.27 297.07 124.27Q296.26 124.27 296.02 123.595Q295.78000000000003 122.92 296.05 121.33L296.77000000000004 117.13L297.31 116.62Q296.5 118.96 295.315 120.715Q294.13 122.47 292.82500000000005 123.43Q291.52000000000004 124.39 290.29 124.39ZM291.64 122.68Q292.45 122.68 293.28999999999996 122.065Q294.13 121.45 294.895 120.43Q295.66 119.41 296.21500000000003 118.21000000000001Q296.77000000000004 117.01 296.98 115.93Q297.22 114.73 296.785 113.965Q296.35 113.2 295.3 113.23Q294.31 113.23 293.32000000000005 114.07Q292.33000000000004 114.91 291.55000000000007 116.33500000000001Q290.77000000000004 117.76 290.5 119.59Q290.26 121.21 290.56 121.945Q290.86 122.68 291.64 122.68ZM305.71000000000004 124.39Q304.39000000000004 124.39 303.56500000000005 123.805Q302.74 123.22 302.305 122.275Q301.87 121.33 301.795 120.19Q301.72 119.05 301.96000000000004 117.94Q302.32000000000005 116.08 303.37 114.75999999999999Q304.42 113.44 305.785 112.735Q307.15000000000003 112.03 308.47 112.03Q309.19000000000005 112.03 309.82000000000005 112.24000000000001Q310.45000000000005 112.45 310.82500000000005 112.87Q311.20000000000005 113.29 311.14000000000004 113.89Q311.11 114.34 310.81000000000006 114.655Q310.51000000000005 114.97 309.97 114.97Q309.43 114.97 309.16 114.64Q308.89000000000004 114.31 308.77000000000004 113.89Q308.65000000000003 113.5 308.35 113.125Q308.05 112.75 307.33000000000004 112.75Q306.49 112.75 305.83000000000004 113.305Q305.17 113.86 304.75 114.82Q304.33000000000004 115.78 304.09000000000003 116.98Q303.82000000000005 118.63 304.01500000000004 120.055Q304.21000000000004 121.48 304.975 122.35Q305.74 123.22 307.15000000000003 123.22Q308.02000000000004 123.22 308.80000000000007 122.83Q309.58000000000004 122.44 310.15000000000003 121.99Q310.24 121.93 310.36 122.05000000000001Q310.48 122.17 310.39000000000004 122.26Q309.22 123.37 308.02000000000004 123.88Q306.82000000000005 124.39 305.71000000000004 124.39ZM313.21000000000004 124.24Q312.73 124.24 312.56500000000005 124.18Q312.40000000000003 124.12 312.40000000000003 124.03Q312.40000000000003 123.94 312.56500000000005 123.25Q312.73 122.56 312.85 121.78L315.85 105.7Q316.06 104.53 315.64 104.245Q315.22 103.96000000000001 313.90000000000003 104.62Q313.78000000000003 104.65 313.70500000000004 104.47Q313.63 104.28999999999999 313.75 104.26L317.86 102.25Q317.98 102.19 318.115 102.295Q318.25 102.4 318.22 102.49000000000001L315.46000000000004 117.79L314.38 123.73Q314.29 124.24 313.21000000000004 124.24ZM320.65000000000003 124.27Q319.96000000000004 124.27 319.42 123.83500000000001Q318.88 123.4 318.19 122.26L316.45000000000005 119.29Q316.12 118.72 315.83500000000004 118.58500000000001Q315.55 118.45 314.83000000000004 118.63L317.71000000000004 117.61L319.78000000000003 121.15Q320.41 122.2 320.845 122.515Q321.28000000000003 122.83 321.70000000000005 122.83Q322.03000000000003 122.83 322.51 122.56Q322.99 122.29 323.56 121.75Q323.68 121.63 323.8 121.765Q323.92 121.9 323.83000000000004 121.99Q321.82000000000005 124.27 320.65000000000003 124.27ZM314.83000000000004 118.63V118.18Q316.75 117.76 317.935 117.265Q319.12 116.77 319.735 116.095Q320.35 115.42 320.5 114.46000000000001Q320.62 113.8 320.38 113.425Q320.14000000000004 113.05 319.63 113.05Q318.22 113.05 317.08000000000004 114.34Q315.94 115.63 315.46000000000004 117.79L314.47 116.71Q315.19 115.36 316.255 114.31Q317.32000000000005 113.26 318.595 112.64500000000001Q319.87 112.03 321.16 112.03Q322.0 112.03 322.375 112.345Q322.75 112.66 322.855 113.08Q322.96000000000004 113.5 322.90000000000003 113.83Q322.75 114.76 321.71500000000003 115.69Q320.68 116.62 318.925 117.37Q317.17 118.12 314.83000000000004 118.63ZM328.51 124.36Q326.86 124.36 325.93 123.52000000000001Q325.0 122.68 324.71500000000003 121.33000000000001Q324.43 119.98 324.7 118.45Q324.91 117.31 325.54 116.17Q326.17 115.03 327.1 114.1Q328.03000000000003 113.17 329.20000000000005 112.6Q330.37 112.03 331.69 112.03Q332.83 112.03 333.385 112.465Q333.94 112.9 333.85 113.65Q333.73 114.37 333.025 115.06Q332.32 115.75 331.21000000000004 116.28999999999999Q330.1 116.83 328.72 117.22Q327.34000000000003 117.61 325.90000000000003 117.76L325.96000000000004 117.37Q328.21000000000004 117.04 329.74 116.305Q331.27000000000004 115.57 331.51 114.28Q331.69 113.53 331.28499999999997 113.185Q330.88 112.84 330.28000000000003 112.84Q329.38 112.84 328.69 113.47Q328.0 114.1 327.55 115.15Q327.1 116.2 326.89 117.46Q326.59000000000003 119.08 326.83000000000004 120.38499999999999Q327.07 121.69 327.82 122.47Q328.57 123.25 329.83 123.25Q330.52000000000004 123.25 331.285 123.03999999999999Q332.05 122.83 332.77 122.26Q332.83 122.2 332.935 122.32Q333.04 122.44 332.98 122.53Q331.84000000000003 123.52 330.71500000000003 123.94Q329.59000000000003 124.36 328.51 124.36ZM344.32000000000005 124.27Q343.48 124.27 343.27000000000004 123.58Q343.06000000000006 122.89 343.33000000000004 121.33L344.20000000000005 116.56Q344.86 113.35 343.21000000000004 113.35Q342.28000000000003 113.35 341.26 114.565Q340.24 115.78 339.34000000000003 118.09Q338.44000000000005 120.4 337.84000000000003 123.73L337.42 123.7Q338.05 120.19 339.08500000000004 117.565Q340.12000000000006 114.94 341.485 113.485Q342.85 112.03 344.35 112.03Q345.64000000000004 112.03 346.09000000000003 112.96000000000001Q346.54 113.89 346.15000000000003 115.99L345.16 121.33Q345.01000000000005 122.23 345.1600000000001 122.605Q345.31000000000006 122.98 345.64000000000004 122.98Q345.97 122.98 346.43500000000006 122.62Q346.90000000000003 122.26 347.50000000000006 121.69Q347.59000000000003 121.57 347.71000000000004 121.69Q347.83000000000004 121.81 347.74 121.93Q346.78000000000003 123.04 345.97 123.655Q345.16 124.27 344.32000000000005 124.27ZM336.67 124.24Q336.19000000000005 124.24 336.02500000000003 124.18Q335.86 124.12 335.86 124.03Q335.86 123.94 336.02500000000003 123.25Q336.19000000000005 122.56 336.31000000000006 121.78L337.54 115.09Q337.84000000000003 113.41 337.06000000000006 113.41Q336.73 113.41 336.22 113.755Q335.71000000000004 114.1 335.08000000000004 114.73Q334.99 114.85 334.87 114.715Q334.75000000000006 114.58 334.84000000000003 114.49Q335.89000000000004 113.29 336.745 112.72Q337.6 112.15 338.41 112.15Q339.22 112.15 339.44500000000005 112.81Q339.67 113.47 339.40000000000003 114.94L337.84000000000003 123.73Q337.75000000000006 124.24 336.67 124.24ZM371.71000000000004 124.27Q370.87000000000006 124.27 370.6600000000001 123.58Q370.45000000000005 122.89 370.72 121.33L371.59000000000003 116.56Q371.86 114.94 371.65000000000003 114.145Q371.44000000000005 113.35 370.69000000000005 113.35Q369.82000000000005 113.35 368.845 114.535Q367.87000000000006 115.72 366.985 118.045Q366.1 120.37 365.50000000000006 123.73L365.08000000000004 123.7Q365.68000000000006 120.16 366.71500000000003 117.52Q367.75000000000006 114.88 369.07000000000005 113.455Q370.39000000000004 112.03 371.83000000000004 112.03Q373.03000000000003 112.03 373.46500000000003 112.96000000000001Q373.90000000000003 113.89 373.51000000000005 115.99L372.55000000000007 121.33Q372.40000000000003 122.23 372.535 122.605Q372.67 122.98 373.00000000000006 122.98Q373.33000000000004 122.98 373.7950000000001 122.62Q374.26000000000005 122.26 374.86 121.69Q374.98 121.57 375.1 121.69Q375.22 121.81 375.1 121.93Q374.14000000000004 123.04 373.33000000000004 123.655Q372.52000000000004 124.27 371.71000000000004 124.27ZM357.70000000000005 124.24Q357.22 124.24 357.07000000000005 124.18Q356.92 124.12 356.92 124.03Q356.92 123.94 357.08500000000004 123.265Q357.25000000000006 122.59 357.37000000000006 121.87L358.6 115.09Q358.90000000000003 113.41 358.12000000000006 113.41Q357.79 113.41 357.28000000000003 113.755Q356.77000000000004 114.1 356.14000000000004 114.73Q356.05 114.85 355.93000000000006 114.715Q355.81000000000006 114.58 355.90000000000003 114.49Q356.95000000000005 113.29 357.80500000000006 112.72Q358.66 112.15 359.47 112.15Q360.28000000000003 112.15 360.505 112.81Q360.73 113.47 360.46000000000004 114.94L358.90000000000003 123.73Q358.78000000000003 124.24 357.70000000000005 124.24ZM364.33000000000004 124.24Q363.85 124.24 363.70000000000005 124.18Q363.55 124.12 363.55 124.03Q363.55 123.94 363.71500000000003 123.22Q363.88000000000005 122.5 364.00000000000006 121.78L364.99 116.53Q365.23 114.91 365.005 114.13Q364.78000000000003 113.35 364.06000000000006 113.35Q363.19000000000005 113.35 362.20000000000005 114.58Q361.21000000000004 115.81 360.34000000000003 118.12Q359.47 120.43 358.90000000000003 123.73L358.45000000000005 123.7Q359.05 120.19 360.08500000000004 117.565Q361.12000000000006 114.94 362.44000000000005 113.485Q363.76000000000005 112.03 365.23 112.03Q366.37000000000006 112.03 366.83500000000004 112.945Q367.3 113.86 366.91 115.96000000000001L365.50000000000006 123.73Q365.44000000000005 124.24 364.33000000000004 124.24ZM378.88000000000005 124.27Q378.07000000000005 124.27 377.81500000000005 123.595Q377.56000000000006 122.92 377.89000000000004 121.33L379.12000000000006 115.09Q379.45000000000005 113.41 378.61000000000007 113.41Q378.28000000000003 113.41 377.77000000000004 113.755Q377.26000000000005 114.1 376.66 114.73Q376.57000000000005 114.85 376.43500000000006 114.715Q376.30000000000007 114.58 376.42 114.49Q377.47 113.29 378.31000000000006 112.72Q379.15000000000003 112.15 379.93000000000006 112.15Q380.77000000000004 112.15 381.01000000000005 112.81Q381.25000000000006 113.47 380.95000000000005 114.94L379.72 121.33Q379.54 122.23 379.69000000000005 122.605Q379.84000000000003 122.98 380.17 122.98Q380.50000000000006 122.98 380.99500000000006 122.635Q381.49000000000007 122.29 382.06000000000006 121.72Q382.18000000000006 121.6 382.30000000000007 121.735Q382.42 121.87 382.30000000000007 121.96Q381.34000000000003 123.1 380.51500000000004 123.685Q379.69000000000005 124.27 378.88000000000005 124.27ZM380.80000000000007 108.73Q380.14000000000004 108.73 379.76500000000004 108.37Q379.39000000000004 108.01 379.39000000000004 107.32Q379.39000000000004 106.69 379.76500000000004 106.33Q380.14000000000004 105.97 380.80000000000007 105.97Q381.49000000000007 105.97 381.85 106.33Q382.21000000000004 106.69 382.21000000000004 107.32Q382.21000000000004 108.73 380.80000000000007 108.73ZM386.74000000000007 124.36Q386.11000000000007 124.36 385.55500000000006 124.13499999999999Q385.00000000000006 123.91 384.7300000000001 123.31Q384.4600000000001 122.71 384.64000000000004 121.6L385.9000000000001 114.82Q386.11000000000007 113.74 385.93000000000006 113.47Q385.75000000000006 113.2 384.88000000000005 113.2Q384.76000000000005 113.2 384.7900000000001 112.99000000000001Q384.82000000000005 112.78 384.9100000000001 112.78Q386.08000000000004 112.78 386.87500000000006 112.075Q387.6700000000001 111.37 388.0300000000001 110.38Q388.06000000000006 110.26 388.31500000000005 110.28999999999999Q388.57000000000005 110.32 388.5400000000001 110.41L386.68000000000006 120.82Q386.4700000000001 121.99 386.81500000000005 122.53Q387.1600000000001 123.07 388.0900000000001 123.07Q388.87000000000006 123.07 389.5450000000001 122.71Q390.2200000000001 122.35 390.88000000000005 121.81Q390.94000000000005 121.75 391.06000000000006 121.87Q391.18000000000006 121.99 391.12000000000006 122.05Q389.74000000000007 123.28 388.70500000000004 123.82Q387.6700000000001 124.36 386.74000000000007 124.36ZM391.12000000000006 113.8Q391.06000000000006 113.8 390.475 113.71000000000001Q389.89000000000004 113.62 389.095 113.545Q388.30000000000007 113.47 387.55000000000007 113.47L387.61000000000007 112.72Q388.45000000000005 112.72 389.33500000000004 112.66Q390.2200000000001 112.6 390.92500000000007 112.53999999999999Q391.63000000000005 112.48 391.9000000000001 112.48Q392.0200000000001 112.48 392.08000000000004 112.57Q392.14000000000004 112.66 392.11000000000007 112.78Q392.05000000000007 113.02 391.75000000000006 113.41Q391.45000000000005 113.8 391.12000000000006 113.8ZM399.37000000000006 124.0Q399.2800000000001 124.0 399.2800000000001 123.82Q399.2800000000001 123.64 399.37000000000006 123.64Q400.2700000000001 123.64 400.7350000000001 123.49000000000001Q401.2000000000001 123.34 401.42500000000007 122.89Q401.6500000000001 122.44 401.80000000000007 121.57L404.26000000000005 107.68Q404.50000000000006 106.39 404.1700000000001 106.0Q403.8400000000001 105.61 402.55000000000007 105.61Q402.49000000000007 105.61 402.49000000000007 105.43Q402.49000000000007 105.25 402.55000000000007 105.25Q403.18000000000006 105.25 403.96000000000004 105.295Q404.74000000000007 105.34 405.61000000000007 105.34Q406.5400000000001 105.34 407.36500000000007 105.295Q408.19000000000005 105.25 408.82000000000005 105.25Q408.88000000000005 105.25 408.88000000000005 105.43Q408.88000000000005 105.61 408.82000000000005 105.61Q407.9200000000001 105.61 407.44000000000005 105.775Q406.9600000000001 105.94 406.7500000000001 106.39Q406.5400000000001 106.84 406.36000000000007 107.71000000000001L403.93000000000006 121.45Q403.7200000000001 122.68 404.0050000000001 123.055Q404.2900000000001 123.43 405.43000000000006 123.43H407.7700000000001Q409.6600000000001 123.43 410.9200000000001 122.33500000000001Q412.18000000000006 121.24 413.0800000000001 119.26Q413.0800000000001 119.2 413.2600000000001 119.23Q413.44000000000005 119.26 413.4100000000001 119.35Q413.1700000000001 120.19 412.8850000000001 121.375Q412.6000000000001 122.56 412.4200000000001 123.55Q412.3300000000001 124.0 411.94000000000005 124.0ZM417.19000000000005 124.27Q416.38000000000005 124.27 416.12500000000006 123.595Q415.87000000000006 122.92 416.20000000000005 121.33L417.43000000000006 115.09Q417.76000000000005 113.41 416.9200000000001 113.41Q416.59000000000003 113.41 416.08000000000004 113.755Q415.57000000000005 114.1 414.97 114.73Q414.88000000000005 114.85 414.74500000000006 114.715Q414.61000000000007 114.58 414.73 114.49Q415.78000000000003 113.29 416.62 112.72Q417.46000000000004 112.15 418.24000000000007 112.15Q419.08000000000004 112.15 419.32000000000005 112.81Q419.56000000000006 113.47 419.26000000000005 114.94L418.03000000000003 121.33Q417.85 122.23 418.0 122.605Q418.15000000000003 122.98 418.48 122.98Q418.81000000000006 122.98 419.30500000000006 122.635Q419.80000000000007 122.29 420.37000000000006 121.72Q420.49000000000007 121.6 420.61 121.735Q420.73 121.87 420.61000000000007 121.96Q419.65000000000003 123.1 418.82500000000005 123.685Q418.00000000000006 124.27 417.19000000000005 124.27ZM419.11000000000007 108.73Q418.45000000000005 108.73 418.07500000000005 108.37Q417.70000000000005 108.01 417.70000000000005 107.32Q417.70000000000005 106.69 418.07500000000005 106.33Q418.45000000000005 105.97 419.11000000000007 105.97Q419.80000000000007 105.97 420.1600000000001 106.33Q420.52000000000004 106.69 420.52000000000004 107.32Q420.52000000000004 108.73 419.11000000000007 108.73ZM426.07000000000005 124.36Q424.4200000000001 124.36 423.49000000000007 123.52000000000001Q422.56000000000006 122.68 422.2750000000001 121.33000000000001Q421.99000000000007 119.98 422.26000000000005 118.45Q422.4700000000001 117.31 423.1000000000001 116.17Q423.7300000000001 115.03 424.6600000000001 114.1Q425.5900000000001 113.17 426.7600000000001 112.6Q427.93000000000006 112.03 429.25000000000006 112.03Q430.39000000000004 112.03 430.94500000000005 112.465Q431.50000000000006 112.9 431.4100000000001 113.65Q431.2900000000001 114.37 430.58500000000004 115.06Q429.88000000000005 115.75 428.7700000000001 116.28999999999999Q427.6600000000001 116.83 426.2800000000001 117.22Q424.9000000000001 117.61 423.4600000000001 117.76L423.5200000000001 117.37Q425.7700000000001 117.04 427.30000000000007 116.305Q428.8300000000001 115.57 429.07000000000005 114.28Q429.25000000000006 113.53 428.845 113.185Q428.44000000000005 112.84 427.8400000000001 112.84Q426.94000000000005 112.84 426.25000000000006 113.47Q425.56000000000006 114.1 425.11000000000007 115.15Q424.6600000000001 116.2 424.45000000000005 117.46Q424.1500000000001 119.08 424.3900000000001 120.38499999999999Q424.63000000000005 121.69 425.38000000000005 122.47Q426.13000000000005 123.25 427.39000000000004 123.25Q428.0800000000001 123.25 428.8450000000001 123.03999999999999Q429.61000000000007 122.83 430.33000000000004 122.26Q430.39000000000004 122.2 430.49500000000006 122.32Q430.6000000000001 122.44 430.5400000000001 122.53Q429.4000000000001 123.52 428.2750000000001 123.94Q427.1500000000001 124.36 426.07000000000005 124.36ZM436.2400000000001 124.39Q434.6500000000001 124.39 433.81000000000006 123.64Q432.9700000000001 122.89 433.2100000000001 121.6L436.1800000000001 105.7Q436.3900000000001 104.53 435.9700000000001 104.245Q435.55000000000007 103.96000000000001 434.2000000000001 104.62Q434.0800000000001 104.65 434.0200000000001 104.47Q433.9600000000001 104.28999999999999 434.0800000000001 104.26L438.1900000000001 102.25Q438.3400000000001 102.19 438.4600000000001 102.31Q438.5800000000001 102.43 438.55000000000007 102.49000000000001L435.1600000000001 121.12Q434.9800000000001 122.2 435.6400000000001 122.905Q436.30000000000007 123.61 437.4400000000001 123.61Q438.3700000000001 123.61 439.3150000000001 122.875Q440.2600000000001 122.14 440.9950000000001 120.75999999999999Q441.7300000000001 119.38 442.0600000000001 117.4Q442.30000000000007 116.35 442.2250000000001 115.495Q442.1500000000001 114.64 441.7750000000001 114.11500000000001Q441.4000000000001 113.59 440.5900000000001 113.59Q439.4200000000001 113.59 438.32500000000005 114.535Q437.2300000000001 115.48 436.4200000000001 117.17500000000001Q435.61000000000007 118.87 435.1600000000001 121.12L434.9500000000001 120.52Q435.2200000000001 118.81 435.8950000000001 117.265Q436.5700000000001 115.72 437.5450000000001 114.55Q438.5200000000001 113.38 439.6600000000001 112.705Q440.80000000000007 112.03 441.9700000000001 112.03Q443.3800000000001 112.03 444.0400000000001 113.275Q444.7000000000001 114.52 444.3400000000001 116.47Q443.9500000000001 118.42 443.05000000000007 119.905Q442.1500000000001 121.39 440.9650000000001 122.38Q439.7800000000001 123.37 438.5350000000001 123.88Q437.2900000000001 124.39 436.2400000000001 124.39ZM449.6500000000001 124.36Q448.0000000000001 124.36 447.0700000000001 123.52000000000001Q446.1400000000001 122.68 445.85500000000013 121.33000000000001Q445.5700000000001 119.98 445.8400000000001 118.45Q446.0500000000001 117.31 446.6800000000001 116.17Q447.3100000000001 115.03 448.2400000000001 114.1Q449.17000000000013 113.17 450.34000000000015 112.6Q451.5100000000001 112.03 452.8300000000001 112.03Q453.9700000000001 112.03 454.5250000000001 112.465Q455.0800000000001 112.9 454.9900000000001 113.65Q454.8700000000001 114.37 454.1650000000001 115.06Q453.4600000000001 115.75 452.35000000000014 116.28999999999999Q451.2400000000001 116.83 449.8600000000001 117.22Q448.48000000000013 117.61 447.04000000000013 117.76L447.10000000000014 117.37Q449.35000000000014 117.04 450.8800000000001 116.305Q452.41000000000014 115.57 452.6500000000001 114.28Q452.8300000000001 113.53 452.42500000000007 113.185Q452.0200000000001 112.84 451.42000000000013 112.84Q450.5200000000001 112.84 449.8300000000001 113.47Q449.1400000000001 114.1 448.6900000000001 115.15Q448.2400000000001 116.2 448.0300000000001 117.46Q447.73000000000013 119.08 447.97000000000014 120.38499999999999Q448.2100000000001 121.69 448.9600000000001 122.47Q449.7100000000001 123.25 450.9700000000001 123.25Q451.66000000000014 123.25 452.4250000000001 123.03999999999999Q453.1900000000001 122.83 453.9100000000001 122.26Q453.9700000000001 122.2 454.0750000000001 122.32Q454.1800000000001 122.44 454.1200000000001 122.53Q452.98000000000013 123.52 451.85500000000013 123.94Q450.73000000000013 124.36 449.6500000000001 124.36Z" fill="currentColor" /></g>
</svg>
